<?xml version="1.0" encoding="UTF-8" standalone="no"?>
<!-- Generator: Adobe Illustrator 18.1.0, SVG Export Plug-In . SVG Version: 6.00 Build 0)  -->

<svg
   xmlns:dc="http://purl.org/dc/elements/1.1/"
   xmlns:cc="http://creativecommons.org/ns#"
   xmlns:rdf="http://www.w3.org/1999/02/22-rdf-syntax-ns#"
   xmlns:svg="http://www.w3.org/2000/svg"
   xmlns="http://www.w3.org/2000/svg"
   xmlns:sodipodi="http://sodipodi.sourceforge.net/DTD/sodipodi-0.dtd"
   xmlns:inkscape="http://www.inkscape.org/namespaces/inkscape"
   version="1.1"
   id="Share"
   x="0px"
   y="0px"
   viewBox="0 0 20 20"
   style="enable-background:new 0 0 20 20;"
   xml:space="preserve"
   inkscape:version="0.91 r13725"
   sodipodi:docname="net.svg"
   inkscape:export-filename="/Users/sebastiankohler/git/drseb.github.io/assets/svg/net.png"
   inkscape:export-xdpi="4500"
   inkscape:export-ydpi="4500"><metadata
     id="metadata3399"><rdf:RDF><cc:Work
         rdf:about=""><dc:format>image/svg+xml</dc:format><dc:type
           rdf:resource="http://purl.org/dc/dcmitype/StillImage" /><dc:title></dc:title></cc:Work></rdf:RDF></metadata><defs
     id="defs3397" /><sodipodi:namedview
     pagecolor="#ffffff"
     bordercolor="#666666"
     borderopacity="1"
     objecttolerance="10"
     gridtolerance="10"
     guidetolerance="10"
     inkscape:pageopacity="0"
     inkscape:pageshadow="2"
     inkscape:window-width="1440"
     inkscape:window-height="851"
     id="namedview3395"
     showgrid="false"
     inkscape:zoom="34.78347"
     inkscape:cx="11.207949"
     inkscape:cy="9.9937625"
     inkscape:window-x="0"
     inkscape:window-y="0"
     inkscape:window-maximized="1"
     inkscape:current-layer="Share" /><path
     d="M 12.48863,10.730983 6.09577,7.7882147 c 0.046,-0.188 0.075,-0.384 0.075,-0.584 0,-0.2 -0.029,-0.395 -0.075,-0.583 L 11.731073,3.0178895 C 13.172235,4.1385551 14.763061,2.4425313 13.670771,1.1946004 12.629,0.26637697 10.855886,1.4063678 11.420095,2.4296091 L 5.37077,5.3792147 c -0.446,-0.416 -1.042,-0.675 -1.7,-0.675 -1.379,0 -2.5,1.121 -2.5,2.5 0,1.379 1.121,2.5 2.5,2.5 0.658,0 1.1390028,-0.2292507 1.5850028,-0.6462507 l 5.7497572,3.522328 c -1.5752723,5.221547 4.580176,6.830775 6.861493,3.481315 2.228122,-3.455082 -0.803078,-7.995464 -5.378393,-5.330624 z"
     id="path3393"
     inkscape:connector-curvature="0"
     sodipodi:nodetypes="ccscccccssscccc" /></svg>